<?xml version="1.0" encoding="UTF-8"?>
<svg width="42px" height="42px" viewBox="0 0 42 42" version="1.1" xmlns="http://www.w3.org/2000/svg" xmlns:xlink="http://www.w3.org/1999/xlink">
    <!-- Generator: Sketch 50.2 (55047) - http://www.bohemiancoding.com/sketch -->
    <title>[icon] / payment / ic_cod@3x</title>
    <desc>Created with Sketch.</desc>
    <defs></defs>
    <g id="[icon]-/-payment-/-ic_cod" stroke="none" stroke-width="1" fill="none" fill-rule="evenodd">
        <path d="M5.72731584,19.7503964 L3.15725252,19.7321319 C2.75179313,19.7321319 2.4230641,19.4001933 2.4230641,18.9904318 C2.4230641,18.5814644 2.75179313,18.25032 3.15725252,18.25032 L5.72731584,18.2685845 C6.13277523,18.2685845 6.46150426,18.6005231 6.46150426,19.0094905 C6.46150426,19.4184579 6.13277523,19.7503964 5.72731584,19.7503964 Z M17.488869,27.0458978 L17.4743306,27.0427214 C17.7869058,26.8235466 18.221442,26.8926343 18.4459793,27.196779 C18.6697089,27.5009237 18.59944,27.9249792 18.2876724,28.144948 C17.8709054,28.4387692 17.3887156,28.6333265 16.8806799,28.7111494 C15.976877,28.8493248 15.0553049,28.6174443 14.3348472,28.066331 C13.5990434,27.5088648 13.1120075,26.6972829 12.9730852,25.7983488 C12.7396633,24.4483595 13.3389679,23.0896348 14.5052694,22.3264938 C14.6740762,22.2192888 14.8533829,22.1271718 15.0399589,22.0517313 C15.3945339,21.9087912 15.8016087,22.0731723 15.9478002,22.4201989 C16.0947994,22.7656374 15.9259926,23.1626931 15.5714176,23.3064273 C15.4648028,23.3501034 15.3622264,23.4033089 15.2653038,23.4652495 C14.5585768,23.9369517 14.1991556,24.7683863 14.3485779,25.5918799 C14.4325775,26.1469637 14.7322297,26.6496362 15.1853427,26.9958688 C15.6053405,27.3214545 16.1448761,27.4620122 16.6763348,27.3849834 C16.9703332,27.3365426 17.2497933,27.2206023 17.488869,27.0458978 Z M8.89426061,30.0142862 L8.91445281,30.0079334 C9.28275856,29.9491691 9.62764135,30.2080494 9.68417951,30.5876347 C9.74152536,30.9664258 9.48952669,31.3213936 9.12122095,31.3793637 L6.81850237,31.7502138 L6.7151183,31.7502138 C6.38315852,31.7541843 6.09966002,31.5072157 6.04796799,31.1705124 L5.66189311,28.800884 C5.60535494,28.4212988 5.85735361,28.0671251 6.22485167,28.0083609 C6.59315741,27.9495966 6.9380402,28.209271 6.99457836,28.5880622 L7.25142315,30.2787253 L8.89426061,30.0142862 Z M27.8361603,25.008208 C28.0283901,24.9812082 28.2262737,25.0217079 28.3837728,25.1217659 C28.5420797,25.2210298 28.6462714,25.3703228 28.6745405,25.5362921 L29.0678846,27.6946868 C29.0985767,27.8590679 29.0509231,28.0266254 28.9370391,28.1608302 C28.8223474,28.2958292 28.6503099,28.3855638 28.4588878,28.4109753 L25.9397088,28.7484727 L25.8258248,28.7484727 C25.4235962,28.7754725 25.0722519,28.5173863 25.0407521,28.1719478 C25.0100599,27.8265093 25.3113276,27.5255411 25.7135562,27.4985413 L27.5106621,27.2579256 L27.2303943,25.7173495 C27.1706254,25.3782639 27.4403932,25.0630017 27.8361603,25.008208 Z M6.09966002,25.749908 L5.99223751,25.7435551 C5.62554715,25.7475257 5.31054881,25.5227922 5.25401065,25.2162652 L4.85501276,23.0594586 C4.82432062,22.8950776 4.87197421,22.7283142 4.9874736,22.5941093 C5.10378068,22.4599045 5.2774336,22.3701699 5.47208642,22.3447584 L8.02276523,22.007261 C8.43064768,21.9540555 8.81268412,22.1907007 8.87568379,22.5353451 C8.93868345,22.8799894 8.65922339,23.2023987 8.25134094,23.2563982 L6.4316198,23.4962199 L6.71592599,25.0352078 C6.74661813,25.1995888 6.69896454,25.3671463 6.58346515,25.5013512 C6.46796576,25.635556 6.29350515,25.7252906 6.09966002,25.749908 Z M35.7628107,22.3288761 C35.5075813,22.8521955 32.8454415,25.1400305 32.1160992,25.6157032 C31.7526396,25.8737894 31.236527,25.8269368 30.9344516,25.5077041 C30.7414142,25.3401466 30.6315686,25.1058837 30.6315686,24.8597092 C31.0661048,24.6071817 31.5143716,24.2958901 31.930331,24.0131864 C32.2727907,23.7765412 32.5974813,23.55419 32.8018264,23.4390439 C33.6555526,22.969724 34.1547038,21.0455921 34.3113953,20.2594218 L34.8840461,20.2594218 L35.8064259,20.2594218 C35.8847716,20.9479164 35.8694255,21.643558 35.7587723,22.3288761 L35.7628107,22.3288761 Z M29.9789567,23.6415423 L29.6906121,21.9540555 C30.9780668,21.2552375 32.0434073,20.6842714 32.385867,20.5159198 C32.5191356,20.4555673 32.6596733,20.410303 32.8050571,20.3809209 C32.6338273,21.0559156 32.2832907,22.0890545 32.0539073,22.2883764 C31.7841394,22.4360812 31.4449105,22.6695499 31.0547972,22.9395478 C30.7155682,23.161899 30.3181857,23.4223675 29.9757259,23.6415423 L29.9789567,23.6415423 Z M5.6085857,32.5522663 L3.81794133,22.0080551 L20.62916,19.5645743 L17.996097,21.6300581 C16.0746072,23.1348992 16.344375,24.502359 16.6763348,25.1837066 C16.9727563,25.8587013 17.5227919,26.4114028 18.2262881,26.7393708 C18.5784401,26.8894579 18.9612842,26.9648985 19.3489745,26.9633103 C19.8650872,26.9506045 20.3731229,26.8346642 20.8375435,26.6258129 C21.3326563,26.4161675 22.7768025,25.6665263 25.5084034,24.1918615 L28.2981579,22.6798734 L28.3345039,22.6600206 L29.4281135,29.0724701 L5.6085857,32.5522663 Z M40.7260537,17.174299 C40.5548238,17.3347095 40.3666325,17.4784437 40.1639028,17.6031192 C39.1631773,18.2384083 38.0202987,18.6561109 36.820882,18.8252566 C36.6843827,18.8498741 36.5462681,18.8681387 36.4081534,18.8792562 C35.9098099,18.9118148 35.409851,18.92055 34.9090844,18.906256 C33.771052,18.906256 32.5974813,18.8792562 31.7187167,19.3041058 C31.2227963,19.5439275 29.5306898,20.4619202 27.5720464,21.5252354 L24.7750227,23.0403999 C23.8122586,23.5605429 20.8884279,25.136854 20.2390467,25.4036755 C19.8125874,25.6268208 19.3021286,25.6657322 18.8425541,25.5077041 C18.462133,25.3115585 18.1665192,24.9994728 18.0074047,24.6238581 C17.8975591,24.4007128 17.5696378,23.7288945 18.9402844,22.65605 L28.0792744,15.4899888 C28.315927,15.2374613 28.315927,14.8618466 28.0800821,14.6085251 C27.8450449,14.3552036 27.443624,14.2988217 27.1383179,14.4774967 L24.1846028,16.796302 L24.1111031,16.796302 L20.7785823,16.7724787 C21.0960037,15.8211332 21.6024241,14.322645 21.9093456,13.5698274 C22.2518053,12.732834 23.3308765,12.2873375 24.4616397,11.8148412 L24.7459459,11.6965186 C25.6537873,11.3185216 35.4752738,9.45871269 41.3859348,8.37554474 C41.7930095,8.30645705 42.0619697,7.94513636 41.9876624,7.56872756 C41.9125474,7.19231876 41.5232417,6.94296778 41.116167,7.01126136 C39.5330984,7.30190613 25.5189034,9.86053306 24.1595644,10.4275286 L23.878489,10.5458512 C22.5764959,11.0818764 21.0992345,11.6933422 20.5451605,13.0568314 C20.1808932,13.9684713 19.5460504,15.8417801 19.254475,16.7288025 L0.831110985,16.6041271 C0.636458169,16.5985683 0.448266858,16.6692442 0.313382957,16.8002726 C0.175268303,16.9249481 0.0969225639,17.0964761 0.0944994998,17.2759453 L0,29.2987919 C0,29.6712301 0.326305965,29.9737866 0.729342293,29.9737866 L1.89968225,29.9737866 C2.30271858,29.9737866 2.62983223,29.6712301 2.62983223,29.2987919 C2.62983223,28.9255595 2.30271858,28.6230031 1.89968225,28.6230031 L1.47322297,28.6230031 L1.55722253,17.95094 L19.7907799,18.072439 L21.2890412,18.072439 L2.86971558,20.7787707 C2.67829352,20.8073587 2.50625596,20.9042403 2.39237195,21.0487686 C2.27768025,21.1940909 2.23083435,21.3743542 2.2607188,21.5522352 L4.28074657,33.4297594 C4.33728473,33.7609038 4.64824463,34.004696 5.01089655,33.9999314 L5.12316519,33.9999314 L30.3731085,30.3208132 C30.5645305,30.2938135 30.7365681,30.1969319 30.8512598,30.0516095 C30.9651438,29.9070812 31.0119897,29.7252297 30.9821052,29.5481429 L30.5297999,26.8918402 C30.8561059,27.0506625 31.2187578,27.1332501 31.5870636,27.1348383 C32.0821763,27.1316619 32.5635584,26.9839571 32.9617486,26.7131652 C33.4326307,26.3994912 36.7247671,23.7868647 37.1229573,22.8109017 C37.3628407,22.2240534 37.3200332,20.9550634 37.261072,20.110923 C38.5921419,19.8996894 39.8569813,19.4240166 40.9699754,18.7172575 C41.2696277,18.535406 41.5474724,18.3241723 41.7978557,18.0859389 C42.0732773,17.8127646 42.0563158,17.3847386 41.7615097,17.1306229 C41.4667036,16.8765073 41.0038983,16.8915954 40.7292844,17.1647697 L40.7260537,17.174299 Z" id="Fill-1" stroke="#FFFFFF" stroke-width="0.2" fill="#56687A"></path>
    </g>
</svg>